<svg xmlns="http://www.w3.org/2000/svg" viewBox="0 0 240 320" fill="none" stroke="#fbbf24" stroke-width="1.5" stroke-linecap="round" stroke-linejoin="round">
  <circle cx="120" cy="155" r="135" stroke-dasharray="2 8" opacity="0.15"/>
  <circle cx="120" cy="155" r="108" stroke-dasharray="1 6" opacity="0.25"/>

  <!-- 投影屏幕（背景） -->
  <rect x="155" y="20" width="70" height="50" rx="2" opacity="0.6"/>
  <path d="M162 32 L200 32 M162 40 L195 40 M162 48 L190 48 M162 56 L180 56" opacity="0.5"/>
  <path d="M175 50 L185 40 L195 45 L205 30" opacity="0.7"/>
  <!-- 屏幕支架 -->
  <path d="M190 70 L190 78"/>
  <path d="M180 78 L200 78"/>

  <!-- 头发（整齐专业） -->
  <path d="M96 48 Q96 35 108 32 L120 30 Q134 30 144 40 Q148 45 146 55"/>

  <!-- 头 -->
  <ellipse cx="120" cy="68" rx="22" ry="25"/>

  <!-- 眼镜（职业） -->
  <circle cx="112" cy="64" r="4"/>
  <circle cx="128" cy="64" r="4"/>
  <path d="M116 64 L124 64"/>

  <!-- 自信微笑 -->
  <path d="M114 82 Q120 86 126 82"/>

  <!-- 脖 -->
  <path d="M114 89 L114 97 M126 89 L126 97"/>

  <!-- 西装领 -->
  <path d="M88 108 Q120 100 152 108"/>
  <path d="M100 108 L112 130 L120 110 L128 130 L140 108"/>
  <!-- 衬衣领 -->
  <path d="M112 115 L120 125 L128 115"/>

  <!-- 西装 -->
  <path d="M88 108 Q80 180 85 260"/>
  <path d="M152 108 Q160 180 155 260"/>

  <!-- 拿麦克风的手（右） -->
  <path d="M148 130 Q160 145 170 135"/>
  <!-- 麦克风 -->
  <rect x="165" y="120" width="8" height="18" rx="4" transform="rotate(25 169 129)"/>
  <path d="M172 115 L178 110" opacity="0.6"/>
  <!-- 麦克风线 -->
  <path d="M174 138 Q180 165 175 195" opacity="0.5"/>

  <!-- 指向屏幕的左手 -->
  <path d="M92 130 Q75 120 60 110" stroke-width="2"/>
  <circle cx="60" cy="110" r="3" opacity="0.5"/>

  <!-- 西装扣子 -->
  <circle cx="120" cy="155" r="1.5" fill="#fbbf24"/>
  <circle cx="120" cy="190" r="1.5" fill="#fbbf24"/>

  <!-- 腰带 -->
  <path d="M100 220 L140 220" opacity="0.5"/>

  <!-- 腿 -->
  <path d="M98 260 L95 290 M142 260 L145 290"/>
  <!-- 皮鞋 -->
  <ellipse cx="93" cy="293" rx="10" ry="3"/>
  <ellipse cx="147" cy="293" rx="10" ry="3"/>

  <!-- 头顶气泡：PPT 要点 -->
  <text x="35" y="80" font-size="14" stroke="none" fill="#fbbf24" opacity="0.6">📊</text>

  <text x="120" y="312" text-anchor="middle" font-family="JetBrains Mono, monospace" font-size="10" font-weight="700" fill="#fbbf24" stroke="none" letter-spacing="2">AVDX · 战略 PPT 家</text>
</svg>
