<svg xmlns="http://www.w3.org/2000/svg" viewBox="0 0 240 320" fill="none" stroke="#fbbf24" stroke-width="1.5" stroke-linecap="round" stroke-linejoin="round">
  <circle cx="120" cy="155" r="135" stroke-dasharray="2 8" opacity="0.15"/>
  <circle cx="120" cy="155" r="108" stroke-dasharray="1 6" opacity="0.25"/>

  <!-- 教堂尖顶 & 光柱 -->
  <path d="M120 5 L120 22"/>
  <path d="M113 14 L127 14"/>
  <path d="M100 10 L140 10" stroke-dasharray="2 3" opacity="0.4"/>

  <!-- 头发 -->
  <path d="M96 48 Q94 32 108 30 Q120 27 132 30 Q146 32 144 48"/>

  <!-- 头（微仰） -->
  <ellipse cx="120" cy="65" rx="22" ry="25"/>

  <!-- 眼睛（坚定） -->
  <circle cx="112" cy="62" r="1.2" fill="#fbbf24"/>
  <circle cx="128" cy="62" r="1.2" fill="#fbbf24"/>
  <path d="M108 58 L116 58"/>
  <path d="M124 58 L132 58"/>

  <!-- 张嘴布道 -->
  <ellipse cx="120" cy="80" rx="4" ry="3"/>

  <!-- 脖 -->
  <path d="M114 89 L114 97 M126 89 L126 97"/>

  <!-- 袍子领口 -->
  <path d="M80 108 Q120 100 160 108"/>

  <!-- 十字挂饰 -->
  <path d="M120 108 L120 128 M114 118 L126 118"/>

  <!-- 张开双臂（布道姿势） -->
  <path d="M80 108 L30 115"/>
  <path d="M160 108 L210 115"/>
  <!-- 袖子扩张 -->
  <path d="M30 115 L20 145"/>
  <path d="M210 115 L220 145"/>
  <path d="M20 145 L48 148"/>
  <path d="M220 145 L192 148"/>

  <!-- 手掌张开 -->
  <circle cx="35" cy="145" r="3"/>
  <path d="M32 142 L30 138 M38 142 L40 138 M34 148 L32 152" opacity="0.6"/>
  <circle cx="205" cy="145" r="3"/>
  <path d="M202 142 L200 138 M208 142 L210 138 M206 148 L208 152" opacity="0.6"/>

  <!-- 袍身（宽大) -->
  <path d="M48 148 Q60 220 80 270"/>
  <path d="M192 148 Q180 220 160 270"/>

  <!-- 袍身中缝 -->
  <path d="M120 128 L120 275" stroke-dasharray="3 5" opacity="0.5"/>

  <!-- 袍褶 -->
  <path d="M95 180 Q120 185 145 180" opacity="0.4"/>
  <path d="M90 220 Q120 225 150 220" opacity="0.4"/>
  <path d="M85 255 Q120 260 155 255" opacity="0.4"/>

  <!-- 下摆曲线 -->
  <path d="M80 275 Q120 290 160 275"/>

  <!-- 光辉符号 -->
  <text x="35" y="195" font-size="18" stroke="none" fill="#fbbf24" opacity="0.5">✦</text>
  <text x="195" y="195" font-size="18" stroke="none" fill="#fbbf24" opacity="0.5">✦</text>
  <circle cx="50" cy="75" r="1.5" fill="#fbbf24" opacity="0.5"/>
  <circle cx="190" cy="75" r="1.5" fill="#fbbf24" opacity="0.5"/>

  <text x="120" y="312" text-anchor="middle" font-family="JetBrains Mono, monospace" font-size="10" font-weight="700" fill="#fbbf24" stroke="none" letter-spacing="2">AVLE · 架构布道士</text>
</svg>
